<svg width="106" height="38" viewBox="0 0 106 38" fill="none" xmlns="http://www.w3.org/2000/svg">
<g clip-path="url(#clip0_1_2683)" filter="url(#filter0_d_1_2683)">
<path fill-rule="evenodd" clip-rule="evenodd" d="M64.6405 23.461C59.0071 27.7251 50.8418 30.0001 43.8116 30.0001C33.9542 30.0001 25.08 26.2561 18.3663 20.029C17.8388 19.5393 18.3114 18.872 18.9444 19.2533C26.1898 23.5824 35.1484 26.1867 44.4024 26.1867C50.6434 26.1867 57.509 24.8607 63.8218 22.109C64.7755 21.693 65.573 22.7504 64.6405 23.461Z" fill="#FF9900"/>
<path fill-rule="evenodd" clip-rule="evenodd" d="M66.9827 20.7094C66.2653 19.7647 62.2228 20.2631 60.4083 20.4841C59.8555 20.5534 59.7711 20.0594 60.269 19.704C63.4887 17.377 68.7719 18.0487 69.388 18.8287C70.004 19.613 69.2276 25.0514 66.202 27.6471C65.7379 28.0458 65.2948 27.8335 65.5015 27.3048C66.1809 25.5628 67.7043 21.6584 66.9827 20.7094Z" fill="#FF9900"/>
<path fill-rule="evenodd" clip-rule="evenodd" d="M60.5346 3.27617V1.01414C60.5346 0.671807 60.7878 0.442139 61.0916 0.442139H70.9533C71.2698 0.442139 71.523 0.676141 71.523 1.01414V2.95116C71.5187 3.27617 71.2529 3.70084 70.7803 4.37251L65.6701 11.8649C67.569 11.8173 69.5734 12.1076 71.2951 13.1043C71.6833 13.3296 71.7888 13.6589 71.8183 13.9839V16.3976C71.8183 16.727 71.4639 17.1126 71.0925 16.9133C68.0585 15.2796 64.0286 15.102 60.6739 16.9306C60.3321 17.1213 59.9734 16.74 59.9734 16.4106V14.1183C59.9734 13.7499 59.9776 13.1216 60.3363 12.5626L66.2567 3.84384H61.1043C60.7878 3.84384 60.5346 3.61417 60.5346 3.27617Z" fill="#1D1E25"/>
<path fill-rule="evenodd" clip-rule="evenodd" d="M24.5608 17.39H21.5606C21.2736 17.3683 21.0458 17.1473 21.0247 16.8656V1.05314C21.0247 0.736803 21.2821 0.485465 21.6028 0.485465H24.4005C24.6917 0.498457 24.9237 0.728134 24.9448 1.01414V3.08116H24.9997C25.7297 1.08347 27.1012 0.151794 28.9494 0.151794C30.8272 0.151794 32.0003 1.08347 32.8443 3.08116C33.5701 1.08347 35.22 0.151794 36.9881 0.151794C38.2456 0.151794 39.6213 0.6848 40.461 1.88081C41.4105 3.21116 41.2163 5.14384 41.2163 6.8382L41.2121 16.818C41.2121 17.1343 40.9547 17.39 40.634 17.39H37.638C37.3384 17.3683 37.0978 17.1213 37.0978 16.818V8.43721C37.0978 7.76987 37.1569 6.10586 37.0134 5.47318C36.7898 4.41151 36.1188 4.1125 35.2496 4.1125C34.5238 4.1125 33.7642 4.61084 33.4562 5.40818C33.1481 6.20552 33.1776 7.5402 33.1776 8.43721V16.818C33.1776 17.1343 32.9202 17.39 32.5995 17.39H29.6035C29.2997 17.3683 29.0634 17.1213 29.0634 16.818L29.0591 8.43721C29.0591 6.67353 29.3419 4.07783 27.2109 4.07783C25.0546 4.07783 25.139 6.60852 25.139 8.43721V16.818C25.139 17.1343 24.8815 17.39 24.5608 17.39" fill="#1D1E25"/>
<path fill-rule="evenodd" clip-rule="evenodd" d="M80.0129 0.151794C84.4648 0.151794 86.8743 4.07784 86.8743 9.06989C86.8743 13.8929 84.2116 17.7193 80.0129 17.7193C75.6412 17.7193 73.2612 13.7933 73.2612 8.90089C73.2612 3.97817 75.6707 0.151794 80.0129 0.151794ZM80.0382 3.38016C77.827 3.38016 77.6878 6.47419 77.6878 8.40255C77.6878 10.3352 77.6583 14.4606 80.0129 14.4606C82.338 14.4606 82.4477 11.1326 82.4477 9.10455C82.4477 7.76987 82.3929 6.17519 82.0004 4.90984C81.6628 3.80917 80.9919 3.38016 80.0382 3.38016Z" fill="#1D1E25"/>
<path fill-rule="evenodd" clip-rule="evenodd" d="M92.6472 17.39H89.6596C89.36 17.3683 89.1194 17.1213 89.1194 16.818L89.1152 1.00114C89.1406 0.7108 89.3895 0.485465 89.6933 0.485465H92.4742C92.7358 0.498457 92.951 0.680467 93.0101 0.92747V3.34549H93.065C93.9047 1.18314 95.082 0.151794 97.1539 0.151794C98.5 0.151794 99.8124 0.650134 100.656 2.01515C101.441 3.28049 101.441 5.40818 101.441 6.93786V16.8916C101.407 17.169 101.158 17.39 100.863 17.39H97.8544C97.5801 17.3683 97.3523 17.1603 97.3227 16.8916V8.30288C97.3227 6.57386 97.5168 4.04317 95.4449 4.04317C94.7149 4.04317 94.0439 4.54584 93.7106 5.30851C93.2886 6.27486 93.2337 7.23687 93.2337 8.30288V16.818C93.2295 17.1343 92.9679 17.39 92.6472 17.39" fill="#1D1E25"/>
<path fill-rule="evenodd" clip-rule="evenodd" d="M52.6732 9.83689C52.6732 11.0372 52.7028 12.0382 52.112 13.1043C51.6352 13.9709 50.8756 14.5039 50.0359 14.5039C48.8839 14.5039 48.2087 13.6026 48.2087 12.2723C48.2087 9.64622 50.5 9.16955 52.6732 9.16955V9.83689ZM55.6988 17.3466C55.5005 17.5286 55.2135 17.5416 54.9899 17.4203C53.994 16.571 53.8126 16.1766 53.2682 15.3663C51.6225 17.091 50.4536 17.6066 48.3226 17.6066C45.795 17.6066 43.8328 16.0076 43.8328 12.8053C43.8328 10.3049 45.1493 8.60188 47.0314 7.76987C48.6602 7.03319 50.9347 6.9032 52.6732 6.69953V6.30086C52.6732 5.56851 52.7281 4.70184 52.3061 4.06917C51.9432 3.50149 51.2427 3.26749 50.6224 3.26749C49.4788 3.26749 48.4619 3.86983 48.2129 5.11784C48.1623 5.39518 47.9639 5.66818 47.6897 5.68118L44.7822 5.36051C44.5375 5.30418 44.2632 5.10051 44.3349 4.71484C45.0016 1.09214 48.1918 0.00012207 51.0444 0.00012207C52.5044 0.00012207 54.4118 0.398794 55.5638 1.53414C57.0238 2.93382 56.8846 4.80151 56.8846 6.83386V11.6352C56.8846 13.0783 57.4669 13.7109 58.0155 14.4909C58.2054 14.7683 58.2476 15.1019 58.0028 15.3099C57.3909 15.8343 56.3022 16.8093 55.703 17.3553L55.6988 17.3466" fill="#1D1E25"/>
<path fill-rule="evenodd" clip-rule="evenodd" d="M13.3405 9.83713C13.3405 11.0375 13.37 12.0385 12.7792 13.1045C12.3024 13.9712 11.547 14.5042 10.7031 14.5042C9.55108 14.5042 8.88014 13.6028 8.88014 12.2725C8.88014 9.64647 11.1715 9.1698 13.3405 9.1698V9.83713ZM16.366 17.3469C16.1677 17.5289 15.8808 17.5419 15.6571 17.4205C14.6612 16.5712 14.484 16.1769 13.9354 15.3665C12.2897 17.0912 11.1251 17.6069 8.98985 17.6069C6.46642 17.6069 4.5 16.0079 4.5 12.8055C4.5 10.3051 5.82079 8.60212 7.6986 7.77011C9.32744 7.03344 11.6019 6.90344 13.3405 6.69977V6.3011C13.3405 5.56876 13.3953 4.70208 12.9776 4.06941C12.6104 3.50174 11.9099 3.26773 11.2939 3.26773C10.1503 3.26773 9.12911 3.87007 8.88014 5.11808C8.8295 5.39542 8.63117 5.66843 8.36111 5.68143L5.44945 5.36075C5.2047 5.30442 4.93464 5.10075 5.00215 4.71508C5.6731 1.09238 8.85904 0.000366211 11.7116 0.000366211C13.1717 0.000366211 15.079 0.399038 16.231 1.53438C17.6911 2.93406 17.5518 4.80175 17.5518 6.8341V11.6355C17.5518 13.0785 18.1341 13.7112 18.6827 14.4912C18.8768 14.7685 18.919 15.1022 18.6743 15.3102C18.0624 15.8345 16.9737 16.8095 16.3745 17.3555L16.366 17.3469" fill="#1D1E25"/>
</g>
<defs>
<filter id="filter0_d_1_2683" x="0.5" y="0.00012207" width="104.941" height="38" filterUnits="userSpaceOnUse" color-interpolation-filters="sRGB">
<feFlood flood-opacity="0" result="BackgroundImageFix"/>
<feColorMatrix in="SourceAlpha" type="matrix" values="0 0 0 0 0 0 0 0 0 0 0 0 0 0 0 0 0 0 127 0" result="hardAlpha"/>
<feOffset dy="4"/>
<feGaussianBlur stdDeviation="2"/>
<feComposite in2="hardAlpha" operator="out"/>
<feColorMatrix type="matrix" values="0 0 0 0 0 0 0 0 0 0 0 0 0 0 0 0 0 0 0.25 0"/>
<feBlend mode="normal" in2="BackgroundImageFix" result="effect1_dropShadow_1_2683"/>
<feBlend mode="normal" in="SourceGraphic" in2="effect1_dropShadow_1_2683" result="shape"/>
</filter>
<clipPath id="clip0_1_2683">
<rect width="96.9412" height="30" fill="white" transform="translate(4.5 0.00012207)"/>
</clipPath>
</defs>
</svg>
