<svg width="162" height="162" viewBox="0 0 162 162" fill="none" xmlns="http://www.w3.org/2000/svg">
<rect x="67.0286" y="97.4429" width="3.85427" height="41.4334" transform="rotate(-135 67.0286 97.4429)" fill="#161A34"/>
<rect x="69.8914" y="68.9634" width="3.85427" height="26.9799" transform="rotate(-90 69.8914 68.9634)" fill="#161A34"/>
<rect x="96.8911" y="92.1089" width="3.85427" height="26.9799" transform="rotate(180 96.8911 92.1089)" fill="#161A34"/>
<path d="M88.4263 25.0647L87.8526 28.2716C87.7052 28.4079 87.4878 28.5476 87.2003 28.6906C86.9174 28.8305 86.5562 28.9306 86.1168 28.9909C85.6775 29.0512 85.1483 29.026 84.5292 28.9152C84.0024 28.821 83.5356 28.6462 83.1289 28.3909C82.7229 28.1318 82.3913 27.8007 82.134 27.3975C81.8806 26.995 81.7117 26.5303 81.6274 26.0033C81.5438 25.4725 81.5591 24.8879 81.6733 24.2496L81.7775 23.6671C81.8909 23.0326 82.0709 22.4815 82.3173 22.0136C82.5682 21.5426 82.8745 21.1609 83.2364 20.8685C83.5982 20.5761 84.0064 20.3793 84.461 20.278C84.9202 20.1737 85.4189 20.1696 85.9573 20.2659C86.6456 20.389 87.194 20.6062 87.6026 20.9174C88.0158 21.2254 88.3093 21.6033 88.4832 22.0511C88.6571 22.4988 88.7302 22.9881 88.7028 23.5189L87.2839 23.2651C87.29 22.9646 87.2464 22.687 87.1531 22.4322C87.0636 22.1781 86.9075 21.9637 86.6848 21.7889C86.4667 21.611 86.1634 21.4873 85.775 21.4178C85.4405 21.358 85.135 21.3688 84.8585 21.4503C84.582 21.5318 84.3372 21.6805 84.124 21.8963C83.9146 22.1128 83.736 22.3904 83.5881 22.729C83.4402 23.0677 83.3257 23.4639 83.2446 23.9176L83.1383 24.5117C83.0558 24.9731 83.0306 25.3912 83.0627 25.766C83.0987 26.1415 83.187 26.4688 83.3276 26.7479C83.472 27.0277 83.6674 27.2551 83.9139 27.4302C84.161 27.6014 84.4538 27.7172 84.7922 27.7777C85.1229 27.8369 85.3988 27.8585 85.6199 27.8425C85.8417 27.8226 86.021 27.7852 86.1578 27.7303C86.2991 27.6723 86.4109 27.6129 86.4932 27.5523L86.7914 25.8853L85.0437 25.5727L85.2367 24.4942L88.4263 25.0647Z" fill="#161A34"/>
<path d="M95.9622 29.9373L95.5981 31.045L91.2953 29.6306L91.6594 28.5229L95.9622 29.9373ZM94.3546 21.6559L91.6905 29.7605L90.2933 29.3013L92.9574 21.1967L94.3546 21.6559ZM96.5875 26.1399L96.2289 27.2309L92.4883 26.0014L92.8469 24.9104L96.5875 26.1399ZM98.2343 22.9313L97.8684 24.0445L93.5934 22.6393L93.9594 21.526L98.2343 22.9313Z" fill="#161A34"/>
<path d="M104.712 25.1668L100.899 32.7983L99.5935 32.1462L103.407 24.5147L104.712 25.1668ZM107.107 26.3637L106.583 27.412L100.509 24.3765L101.032 23.3282L107.107 26.3637Z" fill="#161A34"/>
<path d="M115.235 31.0078L110.116 37.8328L108.94 36.9504L114.059 30.1254L115.235 31.0078Z" fill="#161A34"/>
<path d="M123.491 37.8175L117.264 43.6495L116.259 42.5762L118.104 35.6059L113.643 39.7836L112.638 38.7102L118.864 32.8782L119.87 33.9516L118.025 40.9384L122.493 36.7527L123.491 37.8175Z" fill="#161A34"/>
<path d="M131.794 47.864L124.386 52.0945L123.663 50.8275L131.071 46.597L131.794 47.864ZM133.122 50.1893L132.105 50.7704L128.737 44.8732L129.755 44.292L133.122 50.1893Z" fill="#161A34"/>
<path d="M133.491 59.9231L133.049 60.0795C132.441 60.2946 131.868 60.4083 131.33 60.4207C130.792 60.4331 130.301 60.3519 129.858 60.1772C129.416 60.0062 129.033 59.7483 128.708 59.4034C128.386 59.0572 128.137 58.6356 127.961 58.1385C127.787 57.645 127.716 57.1626 127.748 56.6913C127.785 56.2224 127.92 55.7789 128.153 55.3607C128.386 54.9425 128.715 54.5652 129.138 54.2287C129.563 53.896 130.08 53.6221 130.687 53.407L131.129 53.2506C131.737 53.0355 132.309 52.9243 132.845 52.9169C133.384 52.9082 133.876 52.9912 134.319 53.1659C134.767 53.3429 135.151 53.6027 135.471 53.9452C135.796 54.2901 136.046 54.7092 136.221 55.2027C136.397 55.6998 136.467 56.1847 136.431 56.6573C136.399 57.1286 136.264 57.5721 136.026 57.988C135.791 58.4025 135.461 58.7742 135.034 59.1033C134.613 59.4348 134.099 59.708 133.491 59.9231ZM132.558 58.6931L133.011 58.5328C133.461 58.3738 133.841 58.1895 134.152 57.9799C134.468 57.7727 134.712 57.5433 134.884 57.2918C135.061 57.0427 135.166 56.7757 135.198 56.491C135.233 56.2049 135.197 55.9091 135.088 55.6035C134.98 55.2978 134.823 55.0468 134.617 54.8505C134.414 54.6528 134.165 54.511 133.87 54.4251C133.579 54.3415 133.245 54.3167 132.867 54.3509C132.494 54.3837 132.082 54.4796 131.633 54.6386L131.18 54.7989C130.731 54.958 130.349 55.1429 130.034 55.3538C129.719 55.5647 129.472 55.7972 129.292 56.0513C129.118 56.3078 129.012 56.5772 128.976 56.8596C128.943 57.1406 128.98 57.434 129.088 57.7396C129.198 58.049 129.354 58.3024 129.556 58.5001C129.763 58.6964 130.013 58.8358 130.307 58.918C130.605 58.999 130.942 59.0206 131.318 58.9828C131.696 58.9487 132.109 58.8521 132.558 58.6931Z" fill="#161A34"/>
<path d="M139.994 66.9826L140.252 68.4245L134.64 69.4284C134.002 69.5426 133.443 69.4997 132.962 69.2999C132.482 69.1001 132.09 68.7814 131.785 68.3438C131.486 67.9093 131.283 67.3999 131.179 66.8154C131.071 66.2117 131.082 65.6541 131.213 65.1426C131.347 64.6305 131.606 64.1994 131.987 63.8493C132.37 63.5031 132.88 63.2729 133.519 63.1588L139.131 62.1549L139.389 63.5969L133.777 64.6007C133.373 64.6729 133.053 64.8016 132.816 64.9868C132.583 65.1713 132.428 65.4015 132.35 65.6773C132.273 65.9531 132.265 66.264 132.327 66.6101C132.388 66.9562 132.503 67.2432 132.671 67.4711C132.839 67.7029 133.065 67.8649 133.347 67.9573C133.634 68.0489 133.979 68.0586 134.382 67.9864L139.994 66.9826Z" fill="#161A34"/>
<path d="M135.707 76.826L135.736 78.2906C135.176 78.2545 134.675 78.1079 134.233 77.8508C133.794 77.5936 133.445 77.2272 133.186 76.7516C132.927 76.2761 132.79 75.6946 132.777 75.0073C132.767 74.48 132.852 74.0037 133.031 73.5783C133.214 73.1528 133.477 72.7863 133.818 72.4789C134.164 72.1714 134.583 71.9328 135.076 71.7631C135.569 71.5973 136.122 71.5084 136.736 71.4966L137.444 71.4829C138.058 71.4711 138.614 71.5405 139.113 71.691C139.612 71.8455 140.04 72.0716 140.398 72.3695C140.759 72.6672 141.037 73.0272 141.233 73.4492C141.429 73.8752 141.532 74.3558 141.542 74.8908C141.555 75.5704 141.441 76.1469 141.2 76.6204C140.96 77.0939 140.621 77.4638 140.185 77.73C139.748 78.0002 139.246 78.1701 138.677 78.2397L138.648 76.7751C139.015 76.729 139.327 76.637 139.586 76.4992C139.846 76.3652 140.041 76.17 140.173 75.9135C140.309 75.6569 140.373 75.3236 140.365 74.9135C140.358 74.5777 140.29 74.286 140.16 74.0384C140.03 73.7909 139.843 73.5855 139.597 73.4222C139.352 73.2589 139.051 73.1378 138.694 73.0587C138.341 72.9835 137.938 72.9502 137.485 72.959L136.764 72.9729C136.334 72.9812 135.945 73.0258 135.594 73.1068C135.248 73.1916 134.952 73.3146 134.705 73.4756C134.458 73.6406 134.269 73.8474 134.137 74.0961C134.005 74.3448 133.942 74.641 133.949 74.9846C133.957 75.4025 134.03 75.7391 134.168 75.9943C134.305 76.2534 134.503 76.4469 134.759 76.5748C135.019 76.7065 135.335 76.7902 135.707 76.826Z" fill="#161A34"/>
<path d="M137.783 86.8085L136.632 86.6208L137.361 82.1506L138.512 82.3383L137.783 86.8085ZM141.97 83.2703L133.55 81.897L133.786 80.4454L142.206 81.8188L141.97 83.2703ZM141.117 88.4981L132.697 87.1247L132.933 85.679L141.353 87.0524L141.117 88.4981Z" fill="#161A34"/>
<path d="M125.782 115.313L123.286 113.219C123.242 113.023 123.229 112.765 123.248 112.444C123.267 112.129 123.36 111.766 123.527 111.355C123.693 110.944 123.979 110.498 124.383 110.016C124.727 109.606 125.111 109.288 125.535 109.063C125.962 108.839 126.414 108.717 126.892 108.694C127.367 108.675 127.854 108.76 128.353 108.949C128.855 109.141 129.354 109.445 129.851 109.862L130.304 110.242C130.798 110.657 131.186 111.087 131.47 111.534C131.753 111.986 131.932 112.442 132.005 112.901C132.078 113.36 132.046 113.812 131.907 114.257C131.769 114.707 131.525 115.142 131.173 115.561C130.724 116.096 130.262 116.464 129.789 116.663C129.316 116.868 128.842 116.935 128.367 116.862C127.892 116.79 127.432 116.61 126.985 116.322L127.911 115.218C128.169 115.373 128.431 115.473 128.699 115.519C128.964 115.568 129.227 115.54 129.49 115.433C129.753 115.333 130.011 115.131 130.265 114.829C130.483 114.569 130.626 114.298 130.693 114.018C130.76 113.738 130.753 113.451 130.672 113.159C130.588 112.87 130.436 112.577 130.216 112.28C129.996 111.983 129.71 111.686 129.357 111.39L128.894 111.002C128.535 110.701 128.185 110.471 127.844 110.312C127.501 110.156 127.173 110.07 126.861 110.053C126.546 110.039 126.252 110.095 125.977 110.222C125.706 110.351 125.459 110.547 125.238 110.81C125.023 111.068 124.866 111.296 124.77 111.496C124.677 111.698 124.62 111.872 124.6 112.018C124.58 112.17 124.575 112.296 124.587 112.398L125.884 113.486L127.025 112.126L127.865 112.831L125.782 115.313Z" fill="#161A34"/>
<path d="M117.527 119.657L116.749 118.789L120.121 115.765L120.9 116.634L117.527 119.657ZM125.507 122.395L119.812 116.043L120.907 115.061L126.602 121.414L125.507 122.395ZM120.506 122.093L119.74 121.238L122.672 118.61L123.438 119.465L120.506 122.093ZM122.466 125.121L121.683 124.249L125.034 121.245L125.816 122.118L122.466 125.121Z" fill="#161A34"/>
<path d="M117.455 129.451L112.718 122.355L113.931 121.545L118.668 128.641L117.455 129.451ZM115.228 130.938L114.577 129.963L120.225 126.192L120.876 127.167L115.228 130.938Z" fill="#161A34"/>
<path d="M107.27 135.605L103.888 127.773L105.238 127.19L108.62 135.022L107.27 135.605Z" fill="#161A34"/>
<path d="M96.9481 139.455L95.0312 131.142L96.4643 130.811L101.566 135.907L100.193 129.952L101.626 129.621L103.543 137.934L102.11 138.265L96.994 133.161L98.3698 139.127L96.9481 139.455Z" fill="#161A34"/>
<path d="M84.1002 141.557L84.1661 133.026L85.625 133.037L85.5592 141.568L84.1002 141.557ZM81.4226 141.536L81.4316 140.365L88.2225 140.417L88.2134 141.589L81.4226 141.536Z" fill="#161A34"/>
<path d="M72.7723 136.95L72.8584 136.49C72.9767 135.856 73.1654 135.303 73.4245 134.831C73.6835 134.359 73.9996 133.975 74.3728 133.679C74.7421 133.382 75.1575 133.18 75.6189 133.071C76.0795 132.966 76.569 132.962 77.0874 133.059C77.6019 133.155 78.0551 133.335 78.4469 133.599C78.8341 133.866 79.1503 134.206 79.3953 134.617C79.6404 135.028 79.8023 135.502 79.8812 136.037C79.9562 136.571 79.9345 137.156 79.8162 137.789L79.7301 138.25C79.6117 138.883 79.4215 139.434 79.1593 139.902C78.8964 140.373 78.5784 140.757 78.2052 141.053C77.8275 141.352 77.4102 141.554 76.9534 141.659C76.492 141.768 76.0041 141.774 75.4895 141.678C74.9711 141.581 74.5164 141.399 74.1253 141.131C73.7335 140.867 73.4174 140.528 73.1769 140.114C72.9357 139.703 72.7795 139.231 72.7084 138.697C72.6326 138.166 72.6539 137.584 72.7723 136.95ZM74.3041 136.76L74.2158 137.232C74.1283 137.7 74.0973 138.122 74.1228 138.496C74.1437 138.873 74.2198 139.2 74.3513 139.475C74.4782 139.753 74.6569 139.977 74.8874 140.147C75.1171 140.321 75.3914 140.438 75.7101 140.497C76.0288 140.557 76.3248 140.547 76.598 140.466C76.8705 140.39 77.1181 140.246 77.3406 140.033C77.5586 139.823 77.7474 139.547 77.9069 139.203C78.0658 138.863 78.189 138.459 78.2765 137.99L78.3647 137.518C78.4522 137.05 78.4836 136.626 78.4588 136.248C78.4341 135.87 78.3567 135.54 78.2267 135.257C78.0921 134.978 77.9119 134.751 77.686 134.578C77.4593 134.408 77.1866 134.294 76.8679 134.234C76.5454 134.174 76.2478 134.182 75.9753 134.258C75.702 134.338 75.4561 134.485 75.2374 134.699C75.018 134.916 74.8304 135.197 74.6747 135.541C74.5151 135.885 74.3916 136.291 74.3041 136.76Z" fill="#161A34"/>
<path d="M63.503 139.059L62.1259 138.56L64.0685 133.2C64.2894 132.59 64.6066 132.128 65.0201 131.812C65.4336 131.497 65.906 131.317 66.4372 131.273C66.9635 131.231 67.5057 131.311 68.064 131.513C68.6405 131.722 69.1174 132.011 69.4946 132.381C69.8704 132.754 70.1142 133.193 70.2259 133.699C70.3339 134.203 70.2774 134.76 70.0565 135.37L68.1139 140.73L66.7367 140.231L68.6793 134.871C68.819 134.485 68.8681 134.144 68.8264 133.846C68.7833 133.552 68.6619 133.302 68.4621 133.097C68.2623 132.892 67.9972 132.729 67.6666 132.609C67.3361 132.49 67.0302 132.445 66.7489 132.476C66.4639 132.506 66.2107 132.62 65.9894 132.818C65.7666 133.02 65.5854 133.313 65.4456 133.699L63.503 139.059Z" fill="#161A34"/>
<path d="M57.0332 130.362L55.7532 129.65C56.0658 129.184 56.4445 128.825 56.8893 128.572C57.3323 128.322 57.8245 128.205 58.3659 128.22C58.9073 128.235 59.4784 128.41 60.0791 128.744C60.5399 129.001 60.9091 129.313 61.1865 129.682C61.4621 130.055 61.6468 130.466 61.7406 130.916C61.8324 131.37 61.8278 131.852 61.7265 132.363C61.6218 132.873 61.4203 133.395 61.1221 133.931L60.7774 134.551C60.4792 135.087 60.1395 135.533 59.7583 135.888C59.3738 136.242 58.9629 136.498 58.5257 136.657C58.0866 136.82 57.6354 136.879 57.1722 136.836C56.7056 136.791 56.2384 136.638 55.7708 136.378C55.1769 136.048 54.7359 135.659 54.4478 135.213C54.1598 134.767 54.0105 134.288 53.9998 133.777C53.9857 133.264 54.0918 132.744 54.3179 132.217L55.5979 132.929C55.4535 133.269 55.3757 133.586 55.3645 133.879C55.3498 134.17 55.4202 134.438 55.5756 134.68C55.7291 134.927 55.9851 135.15 56.3435 135.349C56.637 135.512 56.9234 135.6 57.2026 135.613C57.4819 135.625 57.7538 135.566 58.0183 135.436C58.2828 135.306 58.5391 135.107 58.787 134.838C59.0296 134.571 59.2611 134.239 59.4814 133.843L59.8319 133.213C60.0408 132.838 60.1983 132.479 60.3044 132.135C60.4052 131.793 60.4481 131.475 60.4331 131.181C60.4147 130.885 60.3313 130.617 60.1827 130.378C60.0341 130.139 59.8097 129.935 59.5093 129.768C59.1441 129.565 58.8165 129.459 58.5267 129.45C58.2334 129.438 57.967 129.511 57.7275 129.669C57.4826 129.827 57.2512 130.059 57.0332 130.362Z" fill="#161A34"/>
<path d="M47.5682 127.263L48.3079 126.361L51.8091 129.235L51.0694 130.136L47.5682 127.263ZM48.5285 132.659L53.9407 126.065L55.0776 126.998L49.6654 133.592L48.5285 132.659ZM44.434 129.299L49.8462 122.704L50.9786 123.634L45.5663 130.228L44.434 129.299Z" fill="#161A34"/>
<path d="M28.9361 102.765L31.9947 101.644C32.1868 101.702 32.417 101.82 32.6855 101.996C32.949 102.17 33.2175 102.431 33.4911 102.78C33.7647 103.129 34.0097 103.599 34.2262 104.189C34.4105 104.692 34.4949 105.183 34.4795 105.663C34.4604 106.144 34.3417 106.598 34.1232 107.023C33.9034 107.445 33.5872 107.825 33.1746 108.164C32.7584 108.503 32.2459 108.785 31.6371 109.008L31.0814 109.212C30.4763 109.434 29.9096 109.556 29.3814 109.579C28.8481 109.6 28.364 109.528 27.9291 109.363C27.4941 109.198 27.1183 108.945 26.8017 108.603C26.48 108.259 26.2251 107.831 26.0368 107.317C25.7961 106.661 25.7071 106.078 25.7698 105.568C25.8275 105.056 26.0058 104.612 26.3048 104.236C26.6039 103.86 26.9895 103.55 27.4617 103.306L27.958 104.659C27.6954 104.806 27.4776 104.983 27.3046 105.192C27.1303 105.398 27.0238 105.641 26.9852 105.921C26.9415 106.199 26.9876 106.523 27.1235 106.894C27.2405 107.213 27.4038 107.471 27.6136 107.669C27.8234 107.867 28.0752 108.003 28.3691 108.078C28.6617 108.15 28.9914 108.164 29.3584 108.121C29.7254 108.078 30.1253 107.977 30.5581 107.819L31.1247 107.611C31.5648 107.45 31.9386 107.26 32.246 107.044C32.5521 106.823 32.7903 106.582 32.9604 106.32C33.1293 106.054 33.2271 105.771 33.254 105.47C33.2772 105.17 33.2297 104.859 33.1113 104.536C32.9957 104.22 32.8752 103.971 32.7499 103.788C32.6209 103.607 32.4982 103.471 32.3819 103.38C32.2605 103.288 32.1528 103.221 32.0589 103.181L30.4691 103.764L31.0803 105.43L30.0516 105.808L28.9361 102.765Z" fill="#161A34"/>
<path d="M29.2868 93.4908L30.4278 93.2505L31.3612 97.6826L30.2202 97.9229L29.2868 93.4908ZM22.9274 99.0336L31.2755 97.2755L31.5786 98.7146L23.2305 100.473L22.9274 99.0336ZM25.6877 94.8535L26.8115 94.6169L27.6229 98.4699L26.4991 98.7065L25.6877 94.8535ZM22.0857 95.0373L23.2325 94.7958L24.1598 99.1992L23.0131 99.4407L22.0857 95.0373Z" fill="#161A34"/>
<path d="M20.809 88.4024L29.324 87.8761L29.414 89.3323L20.899 89.8586L20.809 88.4024ZM20.6438 85.7298L21.8135 85.6575L22.2324 92.4356L21.0628 92.5079L20.6438 85.7298Z" fill="#161A34"/>
<path d="M20.5775 76.513L29.0518 77.4973L28.8821 78.9582L20.4078 77.9739L20.5775 76.513Z" fill="#161A34"/>
<path d="M22.3702 65.6981L30.5331 68.178L30.1056 69.5852L23.146 71.4697L28.9934 73.2461L28.5659 74.6533L20.403 72.1735L20.8305 70.7663L27.8048 68.874L21.9461 67.0941L22.3702 65.6981Z" fill="#161A34"/>
<path d="M26.8777 53.6171L34.2389 57.9293L33.5015 59.1882L26.1402 54.876L26.8777 53.6171ZM28.2311 51.3066L29.2423 51.899L25.8098 57.7586L24.7986 57.1663L28.2311 51.3066Z" fill="#161A34"/>
<path d="M36.5648 46.02L36.9206 46.3252C37.4098 46.7449 37.7939 47.185 38.0729 47.6457C38.3519 48.1064 38.526 48.5723 38.5953 49.0435C38.6671 49.5117 38.6345 49.9727 38.4975 50.4264C38.3575 50.8776 38.1158 51.3033 37.7724 51.7035C37.4316 52.1008 37.0488 52.4029 36.6242 52.6099C36.1992 52.8114 35.7472 52.9152 35.2685 52.9214C34.7897 52.9275 34.2989 52.8307 33.7961 52.6309C33.2958 52.4282 32.801 52.1169 32.3119 51.6973L31.9561 51.3921C31.4669 50.9724 31.0856 50.532 30.8121 50.0709C30.5356 49.6073 30.3627 49.1399 30.2934 48.6687C30.2237 48.192 30.2576 47.7295 30.3951 47.2813C30.5322 46.8276 30.7711 46.4021 31.1119 46.0049C31.4553 45.6046 31.8408 45.3023 32.2684 45.0978C32.693 44.8908 33.1449 44.787 33.6241 44.7864C34.1003 44.7832 34.5873 44.8845 35.0851 45.0902C35.5824 45.2904 36.0757 45.6003 36.5648 46.02ZM35.963 47.4414L35.5983 47.1286C35.2366 46.8183 34.8874 46.5804 34.5506 46.415C34.2135 46.2441 33.893 46.1468 33.5892 46.1229C33.285 46.0935 33.0015 46.136 32.7388 46.2503C32.4731 46.362 32.2347 46.5409 32.0236 46.787C31.8125 47.033 31.6732 47.2944 31.6057 47.571C31.5352 47.8451 31.5364 48.1318 31.6091 48.4309C31.6814 48.7246 31.8264 49.0265 32.0441 49.3368C32.2587 49.6445 32.5469 49.9535 32.9086 50.2638L33.2733 50.5766C33.635 50.8869 33.9857 51.126 34.3254 51.294C34.6651 51.4619 34.9899 51.5603 35.2996 51.5893C35.6089 51.6127 35.8951 51.5701 36.1582 51.4613C36.4184 51.35 36.6541 51.1713 36.8652 50.9252C37.0788 50.6762 37.2209 50.4146 37.2913 50.1405C37.3588 49.8639 37.3549 49.5774 37.2797 49.2812C37.2014 48.9825 37.0522 48.6795 36.832 48.3722C36.6144 48.062 36.3247 47.7517 35.963 47.4414Z" fill="#161A34"/>
<path d="M39.3677 36.9303L40.4864 35.9846L44.167 40.3386C44.5856 40.8338 44.8288 41.3392 44.8964 41.8549C44.9641 42.3706 44.8848 42.8698 44.6587 43.3525C44.4329 43.8298 44.0934 44.26 43.6399 44.6434C43.1716 45.0393 42.6833 45.3088 42.1752 45.4519C41.6645 45.5921 41.162 45.5846 40.6678 45.4296C40.1765 45.272 39.7216 44.9456 39.303 44.4504L35.6224 40.0965L36.7411 39.1508L40.4217 43.5047C40.6864 43.8179 40.9583 44.0306 41.2372 44.1427C41.5135 44.2517 41.7905 44.2708 42.0681 44.1998C42.3457 44.1288 42.6187 43.9799 42.8872 43.7529C43.1557 43.5259 43.3465 43.2828 43.4597 43.0234C43.5759 42.7615 43.6032 42.4852 43.5416 42.1945C43.4775 41.9009 43.3131 41.5975 43.0483 41.2842L39.3677 36.9303Z" fill="#161A34"/>
<path d="M50.1817 35.602L51.4374 34.8477C51.6849 35.3507 51.8074 35.858 51.805 36.3699C51.8006 36.8783 51.6568 37.3634 51.3737 37.8251C51.0905 38.2869 50.6543 38.6947 50.0649 39.0488C49.6129 39.3203 49.1578 39.4844 48.6996 39.5409C48.2394 39.594 47.7908 39.549 47.354 39.4059C46.9151 39.2594 46.4993 39.0148 46.1065 38.672C45.7171 38.3272 45.3645 37.8919 45.0487 37.3662L44.6836 36.7585C44.3678 36.2327 44.1508 35.716 44.0327 35.2083C43.9179 34.6985 43.9005 34.2145 43.9807 33.7563C44.0588 33.2947 44.2321 32.8739 44.5005 32.4939C44.7723 32.1119 45.1376 31.7831 45.5963 31.5075C46.179 31.1575 46.7356 30.969 47.2661 30.9419C47.7967 30.9148 48.2861 31.0241 48.7344 31.2697C49.1861 31.5133 49.5839 31.8645 49.9278 32.3232L48.6721 33.0775C48.4495 32.7829 48.2139 32.5576 47.9653 32.4016C47.72 32.2436 47.4534 32.1714 47.1653 32.185C46.8752 32.1952 46.5544 32.3059 46.2028 32.5171C45.9148 32.6901 45.6959 32.8945 45.5459 33.1304C45.396 33.3663 45.3114 33.6313 45.2921 33.9254C45.2728 34.2195 45.3179 34.541 45.4273 34.89C45.538 35.2336 45.71 35.5996 45.9434 35.9881L46.3145 36.6059C46.5357 36.9742 46.7687 37.29 47.0134 37.5531C47.2594 37.8109 47.5137 38.0067 47.7764 38.1406C48.0424 38.2724 48.3161 38.3335 48.5974 38.324C48.8788 38.3145 49.1668 38.2212 49.4615 38.0442C49.8198 37.829 50.0752 37.5981 50.2278 37.3514C50.3838 37.1028 50.4533 36.8355 50.4364 36.5494C50.4209 36.258 50.336 35.9422 50.1817 35.602Z" fill="#161A34"/>
<path d="M57.4693 28.9805L57.883 30.0707L53.6484 31.6778L53.2347 30.5876L57.4693 28.9805ZM52.3103 27.128L55.3373 35.1042L53.9623 35.626L50.9353 27.6498L52.3103 27.128ZM57.2625 25.2486L60.2895 33.2248L58.92 33.7445L55.893 25.7683L57.2625 25.2486Z" fill="#161A34"/>
<circle cx="71.5" cy="25.5" r="1.5" fill="#161A34"/>
<circle cx="133.5" cy="99.5" r="1.5" fill="#161A34"/>
<circle cx="38.5" cy="117.5" r="1.5" fill="#161A34"/>
</svg>
